<?xml version="1.0" standalone="no"?>
<!DOCTYPE svg PUBLIC "-//W3C//DTD SVG 20010904//EN"
 "http://www.w3.org/TR/2001/REC-SVG-20010904/DTD/svg10.dtd">
<svg version="1.0" xmlns="http://www.w3.org/2000/svg"
 width="612.000000pt" height="612.000000pt" viewBox="0 0 612.000000 612.000000"
 preserveAspectRatio="xMidYMid meet">
<metadata>
Created by potrace 1.14, written by Peter Selinger 2001-2017
</metadata>
<g transform="translate(0.000000,612.000000) scale(0.100000,-0.100000)"
fill="#000000" stroke="none">
<path d="M609 5576 c-271 -71 -477 -259 -565 -516 -10 -30 -19 -59 -20 -65 -1
-5 -3 -12 -4 -15 -13 -33 -15 -323 -15 -1920 0 -1788 1 -1858 19 -1925 10 -38
23 -76 29 -83 5 -6 7 -12 4 -12 -4 0 10 -30 29 -67 39 -73 91 -147 147 -204
42 -44 140 -119 155 -119 5 0 12 -4 14 -8 4 -10 139 -70 170 -76 13 -2 30 -7
38 -10 8 -3 33 -8 55 -12 22 -4 1086 -8 2365 -9 2412 -1 2405 -2 2498 37 15 6
29 12 32 12 3 1 11 5 18 9 6 5 12 6 12 3 0 -10 145 77 190 113 51 41 108 99
130 131 8 12 21 28 28 36 6 7 12 17 12 22 0 6 4 12 8 14 22 9 89 175 108 268
11 58 16 175 14 390 0 8 1 48 2 88 2 39 0 72 -3 72 -4 0 -4 15 0 33 4 17 4 46
0 64 -3 18 -4 34 -2 37 6 6 6 166 0 172 -2 3 -1 19 2 37 4 18 4 49 0 70 -3 20
-4 37 0 37 7 0 6 169 -2 176 -2 2 -1 19 2 37 4 18 4 49 0 69 -3 21 -4 38 0 38
5 0 5 124 1 235 -1 11 0 77 2 148 2 70 0 127 -3 127 -4 0 -4 15 0 33 4 17 4
46 0 64 -3 18 -4 34 -2 37 6 6 6 166 0 172 -2 3 -1 19 2 37 4 18 4 49 0 70 -3
20 -4 37 0 37 7 0 6 169 -2 176 -2 2 -1 19 2 37 4 18 4 49 0 70 -3 20 -4 37 0
37 5 0 5 124 1 235 -1 11 0 77 2 148 2 70 0 127 -3 127 -4 0 -4 15 0 33 4 17
4 46 0 64 -3 18 -4 34 -2 37 3 3 4 47 4 98 -2 118 -3 104 1 171 2 31 -1 57 -5
57 -5 0 -6 4 -3 8 7 12 8 69 1 132 -22 208 -136 410 -306 545 -78 62 -220 128
-303 142 -16 3 -40 9 -53 14 -14 5 -997 8 -2371 8 l-2347 -1 -86 -22z"/>
</g>
</svg>
