<?xml version="1.0" standalone="no"?>
<!DOCTYPE svg PUBLIC "-//W3C//DTD SVG 20010904//EN"
 "http://www.w3.org/TR/2001/REC-SVG-20010904/DTD/svg10.dtd">
<svg version="1.0" xmlns="http://www.w3.org/2000/svg"
 width="1136.000000pt" height="1136.000000pt" viewBox="0 0 1136.000000 1136.000000"
 preserveAspectRatio="xMidYMid meet">
<metadata>
Created by potrace 1.14, written by Peter Selinger 2001-2017
</metadata>
<g transform="translate(0.000000,1136.000000) scale(0.100000,-0.100000)"
fill="#000000" stroke="none">
<path d="M9300 9180 c-14 -4 -21 -8 -17 -9 5 -1 -5 -13 -22 -27 -17 -14 -29
-30 -26 -34 3 -5 1 -11 -5 -15 -5 -3 -10 -14 -10 -23 0 -28 -14 -42 -46 -46
-16 -1 -47 -14 -69 -27 -46 -27 -185 -171 -185 -191 0 -7 -12 -26 -28 -43 -15
-16 -28 -39 -29 -50 -1 -11 -9 -45 -18 -75 -43 -141 -48 -178 -60 -465 -10
-228 -12 -239 -38 -214 -8 8 -47 45 -86 83 -39 37 -71 71 -71 75 0 7 -58 41
-71 41 -5 0 -22 8 -36 17 -31 21 -73 25 -92 9 -8 -6 -17 -10 -20 -10 -14 3
-56 -19 -75 -39 -12 -13 -32 -47 -45 -77 -13 -30 -27 -63 -32 -72 -5 -9 -11
-31 -14 -49 -3 -18 -8 -36 -11 -41 -11 -18 -6 -91 7 -99 29 -18 49 -9 70 34
27 54 78 107 102 107 27 0 75 -29 122 -72 22 -21 43 -38 48 -38 4 0 7 -5 7
-10 0 -13 8 -23 103 -130 31 -34 99 -134 146 -215 16 -27 34 -55 40 -62 6 -7
11 -15 11 -17 0 -5 10 -18 53 -69 11 -12 26 -35 34 -52 9 -16 24 -41 35 -55
38 -50 108 -160 103 -160 -4 0 1 -7 9 -16 23 -23 106 -140 106 -150 1 -18 27
-43 51 -48 26 -6 69 22 73 48 1 8 7 21 14 29 7 8 14 30 16 49 2 18 13 56 24
84 12 29 18 55 14 59 -4 4 -8 11 -8 16 -1 5 -2 14 -3 19 0 6 -7 10 -15 10 -7
0 -21 10 -29 23 -8 12 -29 36 -45 54 -50 53 -225 404 -235 471 -1 10 -10 30
-19 43 -8 13 -19 40 -23 59 -4 19 -16 48 -27 63 -11 15 -22 42 -24 60 -5 48
-14 88 -23 106 -5 9 -8 43 -8 76 0 33 -3 78 -8 100 -12 58 -12 56 1 102 6 23
10 60 9 82 -1 23 1 44 6 46 4 3 6 24 3 48 -9 84 85 217 164 232 9 2 17 4 17 6
0 5 52 7 68 3 14 -5 69 -93 66 -109 0 -2 -5 -19 -10 -37 -5 -18 -12 -46 -15
-62 -2 -16 -9 -36 -14 -45 -5 -10 -7 -29 -6 -44 2 -15 0 -27 -5 -27 -5 0 -5
-10 0 -22 4 -12 4 -38 0 -57 -5 -23 -3 -43 5 -58 l12 -24 14 25 c7 15 17 26
21 26 6 0 15 23 26 70 2 8 4 28 5 43 0 16 7 31 14 34 13 5 38 61 35 77 -1 4 2
13 7 20 12 14 24 63 27 101 0 17 5 41 10 55 8 24 11 60 14 148 1 42 2 43 32
38 17 -2 39 -12 49 -21 13 -12 23 -13 43 -6 28 11 87 63 87 76 0 5 16 40 36
78 41 80 40 112 -3 121 -16 3 -41 3 -58 0 -35 -7 -38 -7 -90 0 -22 4 -58 15
-80 25 -55 26 -76 30 -105 21z"/>
<path d="M9556 8527 c-59 -59 -97 -105 -102 -123 -4 -16 -11 -35 -17 -41 -5
-7 -6 -13 -3 -13 4 0 0 -7 -8 -16 -24 -23 -19 -42 13 -58 26 -14 29 -14 33 2
3 9 22 29 44 44 34 24 44 26 77 18 22 -4 50 -19 64 -32 33 -30 128 -176 136
-210 4 -15 13 -33 21 -40 14 -15 21 -27 103 -193 27 -55 57 -116 67 -135 48
-98 74 -129 109 -130 10 0 33 -6 51 -14 29 -12 38 -12 61 0 14 7 38 15 52 17
14 2 36 13 48 25 22 21 104 152 102 162 -1 3 9 20 21 38 18 24 21 36 13 46 -6
7 -8 16 -4 19 3 4 -3 7 -13 7 -26 0 -44 -19 -44 -46 0 -28 -18 -41 -52 -38
-42 4 -88 33 -106 65 -10 17 -25 40 -35 52 -10 12 -41 67 -68 122 -49 99 -59
118 -79 153 -6 9 -16 28 -22 42 -7 14 -43 72 -80 129 -38 57 -68 109 -68 115
0 6 -13 22 -30 36 -16 14 -30 30 -30 36 0 18 -82 54 -122 54 -32 0 -47 -10
-132 -93z"/>
<path d="M6037 8273 c-3 -2 -20 -7 -39 -9 -18 -3 -52 -18 -75 -35 -23 -16 -45
-29 -50 -29 -4 0 -17 -13 -28 -29 -11 -16 -42 -57 -68 -90 -57 -72 -72 -132
-37 -151 17 -9 27 -6 60 20 22 18 40 35 40 39 0 11 63 37 85 35 40 -3 105 -25
105 -35 0 -6 4 -8 9 -4 9 5 61 -42 106 -96 12 -13 40 -40 63 -59 24 -19 45
-45 49 -57 3 -13 9 -23 14 -23 4 0 15 -16 24 -35 9 -19 23 -39 31 -46 8 -6 14
-18 14 -25 0 -8 15 -31 33 -51 18 -21 39 -54 47 -73 7 -19 19 -42 27 -51 7 -8
13 -19 13 -24 0 -4 14 -30 30 -57 17 -26 30 -55 30 -63 0 -8 4 -15 10 -15 5 0
12 -11 16 -25 3 -14 14 -31 23 -38 9 -6 30 -41 48 -77 18 -36 48 -89 67 -119
18 -30 32 -60 30 -66 -3 -6 -21 -17 -42 -24 -20 -8 -44 -19 -52 -26 -8 -7 -31
-20 -51 -29 -47 -22 -126 -107 -180 -191 -22 -36 -46 -65 -52 -65 -5 0 -8 -3
-4 -6 5 -6 -17 -53 -62 -129 -21 -35 -45 -101 -47 -130 -1 -11 -5 -33 -9 -50
-14 -57 -6 -258 11 -287 4 -6 8 -22 10 -37 15 -115 34 -167 79 -218 83 -95
119 -124 175 -141 22 -6 162 -2 175 6 5 4 18 8 29 9 17 3 74 39 86 54 3 3 17
12 31 20 23 12 74 67 142 152 12 16 34 41 50 57 15 15 27 35 27 43 0 8 9 26
20 40 11 14 20 27 20 30 0 3 18 36 40 73 22 38 40 64 40 59 0 -9 29 -47 98
-130 9 -11 34 -40 54 -65 20 -25 62 -63 93 -85 31 -22 63 -46 70 -52 7 -7 22
-14 32 -16 43 -9 78 -21 84 -29 3 -5 12 -11 20 -12 8 -2 22 -6 31 -11 10 -4
31 -2 48 4 17 5 37 8 45 5 8 -4 45 8 81 25 36 17 70 31 76 31 5 0 19 10 32 23
13 12 41 38 62 58 53 49 91 107 97 146 8 51 -18 49 -44 -4 -18 -37 -31 -49
-75 -69 -50 -22 -149 -34 -170 -21 -6 3 -23 8 -38 11 -16 3 -36 11 -45 19 -9
8 -24 17 -33 20 -10 4 -18 10 -18 15 0 5 -13 12 -28 15 -16 3 -34 17 -42 31
-7 14 -17 26 -22 26 -10 0 -148 139 -148 149 0 5 -11 20 -25 35 -13 14 -40 53
-60 87 -19 33 -42 68 -50 76 -8 8 -15 20 -15 27 0 6 -16 43 -35 80 -19 38 -35
82 -35 98 0 16 -7 45 -15 65 -8 19 -15 46 -15 59 0 12 -4 25 -9 29 -5 3 -12
19 -16 35 -9 43 -58 81 -94 74 -25 -5 -32 -1 -55 32 -14 21 -26 43 -26 49 0
13 -102 218 -112 225 -4 3 -21 36 -38 73 -18 37 -37 67 -43 67 -6 0 -7 3 -4 6
4 4 -3 20 -14 35 -11 16 -18 29 -14 29 3 0 -3 10 -15 22 -11 12 -20 27 -20 34
0 6 -7 17 -14 24 -8 6 -20 28 -27 48 -6 20 -29 63 -50 96 -22 32 -39 63 -39
68 0 6 -14 27 -30 48 -17 21 -37 53 -46 72 -23 49 -36 71 -61 98 -13 13 -23
30 -23 37 0 7 -4 13 -10 13 -5 0 -10 5 -10 11 0 21 -184 190 -212 196 -15 3
-33 12 -39 19 -6 8 -21 14 -34 14 -12 0 -25 3 -29 7 -8 9 -33 13 -39 6z m794
-1532 c3 0 20 -30 38 -65 17 -36 36 -66 42 -68 5 -2 11 -10 13 -18 7 -37 19
-55 72 -114 13 -15 23 -30 23 -34 0 -4 3 -29 7 -57 13 -84 11 -108 -12 -167
-12 -32 -20 -58 -18 -58 2 0 -2 -12 -9 -27 -8 -16 -12 -33 -10 -39 2 -6 -3
-17 -12 -24 -8 -7 -15 -18 -15 -25 0 -18 -72 -85 -120 -112 -74 -42 -177 -48
-240 -13 -14 7 -27 13 -30 12 -14 -5 -40 11 -40 24 0 8 -6 14 -13 14 -20 0
-77 99 -77 135 0 12 -5 26 -10 31 -6 6 -12 26 -15 45 -2 19 -9 66 -15 104 -20
129 -21 205 -1 250 23 53 93 123 147 147 13 6 24 15 24 20 0 4 8 8 18 8 10 0
22 3 26 7 3 4 12 8 19 9 40 8 60 14 64 18 3 3 126 1 144 -3z"/>
<path d="M7785 7783 c-22 -8 -47 -20 -56 -28 -8 -8 -19 -15 -24 -15 -15 0
-105 -106 -116 -137 -6 -18 -14 -33 -19 -33 -10 0 -60 -102 -60 -123 0 -8 -9
-25 -20 -39 -10 -14 -22 -38 -25 -54 -3 -16 -9 -45 -13 -64 -11 -57 -2 -259
14 -298 8 -19 12 -37 9 -40 -4 -4 52 -120 65 -132 3 -3 18 -24 33 -46 39 -58
100 -110 161 -139 29 -14 55 -28 59 -32 9 -8 115 -8 124 0 3 4 15 7 27 7 19 0
97 47 104 63 2 4 12 7 23 7 10 0 19 5 19 10 0 6 7 10 15 10 8 0 15 4 15 8 0 5
8 18 18 30 41 49 49 59 56 72 12 25 30 54 54 87 12 17 22 34 22 38 0 4 10 21
22 38 23 33 28 46 30 85 0 12 4 22 8 22 5 0 12 15 16 33 4 17 9 39 12 47 5 20
13 115 13 170 1 45 -19 130 -33 140 -4 3 -12 27 -18 54 -17 77 -70 166 -99
166 -6 0 -11 4 -11 8 0 11 -90 43 -101 36 -5 -3 -9 -1 -9 5 0 9 -36 20 -89 26
-14 2 -35 5 -46 8 -11 2 -29 1 -41 -3 -14 -6 -28 -2 -45 11 -28 22 -40 22 -94
2z m80 -263 c6 9 62 -6 80 -21 5 -5 17 -9 27 -9 10 0 18 -4 18 -10 0 -5 11
-12 24 -16 23 -5 85 -64 69 -64 -5 0 0 -5 10 -11 35 -20 89 -162 94 -244 8
-154 -7 -216 -58 -234 -16 -5 -29 -15 -29 -20 0 -6 -7 -11 -15 -11 -8 0 -15
-4 -15 -8 0 -15 -55 -28 -90 -21 -19 4 -45 5 -57 3 -15 -4 -25 0 -33 15 -6 12
-18 21 -26 21 -27 0 -151 135 -179 195 -15 31 -25 59 -21 62 3 3 0 15 -6 27
-7 11 -13 41 -14 66 -2 25 -4 52 -5 60 -1 8 -1 36 -1 62 2 41 8 54 41 88 21
22 43 40 48 40 5 0 27 9 48 19 28 13 46 16 62 10 13 -5 25 -4 28 1z"/>
<path d="M5335 6680 c-24 -16 -89 -41 -116 -44 -3 -1 -14 -9 -24 -19 -19 -19
-64 -42 -77 -39 -5 1 -8 -2 -8 -8 0 -6 -6 -10 -14 -10 -19 0 -145 -140 -178
-198 -15 -26 -44 -81 -65 -122 -21 -41 -42 -78 -48 -82 -5 -4 -6 -8 -1 -8 5 0
3 -6 -3 -13 -6 -8 -8 -16 -5 -20 3 -3 1 -14 -4 -24 -10 -18 -17 -48 -31 -140
-11 -76 -2 -231 16 -273 9 -19 17 -43 19 -52 2 -10 19 -39 38 -65 91 -126 143
-161 244 -165 57 -2 132 16 132 32 0 4 12 10 28 13 31 7 121 76 122 95 0 6 3
12 8 12 4 0 16 17 27 38 11 20 32 50 47 65 16 16 28 36 28 45 0 10 11 29 24
43 13 14 27 35 30 47 4 12 16 26 26 32 15 8 24 4 47 -18 30 -31 73 -105 73
-127 0 -8 6 -18 13 -22 20 -12 127 -188 170 -278 21 -44 45 -91 53 -105 21
-36 94 -179 94 -185 0 -3 11 -30 25 -60 13 -31 26 -64 27 -73 2 -9 8 -21 15
-27 7 -5 14 -22 17 -36 2 -15 11 -41 20 -58 9 -17 17 -34 17 -38 2 -10 1 -6
48 -158 23 -71 41 -138 41 -147 0 -9 4 -19 8 -22 5 -3 9 -21 10 -41 1 -20 5
-41 9 -48 4 -7 8 -39 9 -72 0 -33 5 -80 9 -105 9 -54 9 -54 0 -105 -4 -22 -7
-62 -7 -90 -1 -27 -9 -77 -19 -109 -11 -33 -22 -74 -25 -90 -3 -17 -12 -38
-20 -47 -7 -8 -14 -21 -14 -27 0 -6 -8 -17 -19 -24 -10 -7 -21 -23 -25 -34 -8
-25 -50 -74 -64 -74 -5 0 -34 -18 -64 -39 -33 -23 -74 -42 -99 -46 -24 -4 -55
-13 -69 -19 -65 -32 -360 6 -360 46 0 5 -4 7 -8 4 -5 -3 -27 13 -50 35 -48 44
-56 43 -111 -12 -30 -29 -30 -31 -15 -60 8 -17 14 -45 12 -62 -3 -28 5 -40 56
-89 32 -32 62 -55 67 -52 5 3 9 1 9 -4 0 -12 81 -32 152 -38 29 -2 58 -5 63
-5 16 -2 109 13 118 18 4 2 24 7 45 9 20 3 57 14 82 25 40 19 59 25 81 28 4 1
26 18 50 39 39 34 54 48 93 92 35 39 172 281 181 320 0 3 15 33 33 67 18 34
32 72 32 83 0 11 4 20 8 20 5 0 9 6 10 13 1 13 9 49 13 57 1 3 3 10 4 15 2 6
3 12 4 15 3 6 9 54 15 106 2 23 9 50 15 61 5 11 8 23 4 26 -3 3 -7 46 -9 94
-3 86 -9 163 -14 173 -1 3 -2 9 -1 14 1 4 -6 34 -15 65 -9 31 -20 76 -24 101
-14 78 -41 173 -62 220 -12 25 -21 52 -22 60 -2 22 -37 110 -58 145 -10 17
-18 38 -18 48 0 11 -8 31 -18 45 -10 15 -33 61 -52 102 -19 41 -45 91 -57 110
-13 19 -23 43 -23 52 0 27 -101 199 -121 206 -5 2 -9 13 -9 24 0 11 -13 39
-28 62 -15 22 -39 64 -52 91 -13 28 -26 52 -30 55 -3 3 -12 20 -19 38 -8 17
-18 32 -24 32 -6 0 -8 3 -4 6 3 3 1 11 -4 18 -5 6 -26 34 -47 61 -20 28 -40
52 -44 53 -5 2 -8 12 -8 23 0 10 -4 19 -9 19 -14 0 -60 103 -57 126 2 10 -2
30 -9 44 -7 14 -11 34 -9 45 5 30 -23 117 -48 148 -17 21 -25 24 -40 16 -25
-14 -52 -3 -44 16 3 9 -1 18 -9 22 -9 3 -20 25 -26 49 -6 24 -15 41 -20 38 -5
-3 -9 0 -9 6 0 6 -4 9 -9 6 -5 -4 -11 -2 -13 4 -1 5 -16 1 -33 -10z m-77 -320
c2 -4 14 -21 28 -37 13 -15 27 -39 31 -53 3 -14 25 -50 47 -80 65 -87 69 -98
69 -190 0 -47 4 -87 8 -90 4 -3 2 -19 -5 -35 -8 -17 -19 -49 -25 -72 -7 -24
-16 -43 -21 -43 -6 0 -10 -7 -10 -15 0 -10 -28 -29 -72 -49 -132 -59 -236 -35
-304 71 -20 31 -40 66 -44 77 -19 47 -23 62 -25 76 0 8 -5 26 -10 40 -12 34
-8 155 5 181 7 11 9 27 6 34 -3 8 -1 17 5 20 5 4 7 11 4 16 -4 5 -2 9 4 9 5 0
19 15 31 34 11 19 35 44 53 55 18 11 28 21 22 21 -5 0 15 11 45 25 43 18 66
23 105 19 28 -3 51 -9 53 -14z"/>
<path d="M1254 5650 c-51 -7 -194 -71 -225 -100 -8 -8 -35 -33 -60 -56 -82
-76 -185 -204 -234 -289 -67 -119 -123 -261 -130 -326 -2 -20 -8 -47 -15 -59
-28 -51 -29 -330 -3 -455 4 -16 7 -32 8 -35 0 -3 11 -32 24 -65 13 -33 25 -71
28 -85 8 -41 11 -55 13 -57 2 -2 3 -6 4 -10 1 -5 5 -14 9 -20 5 -7 10 -21 12
-30 2 -10 10 -47 18 -83 8 -36 26 -94 41 -129 14 -36 26 -68 26 -72 0 -5 11
-32 23 -61 13 -29 30 -69 37 -88 19 -54 130 -270 160 -315 15 -22 28 -44 28
-50 1 -5 17 -31 37 -57 19 -26 35 -52 35 -58 0 -5 4 -10 8 -10 5 0 22 -24 37
-52 16 -29 31 -55 35 -58 4 -3 19 -24 33 -47 15 -23 45 -60 67 -82 22 -21 40
-42 40 -46 0 -13 65 -101 105 -142 22 -23 68 -72 102 -110 34 -37 89 -97 122
-132 34 -35 61 -67 61 -70 0 -4 20 -28 44 -55 36 -40 42 -53 38 -80 -12 -76
-6 -90 44 -101 28 -5 37 -1 70 34 71 72 104 113 104 127 0 8 7 14 15 14 9 0
15 9 15 24 0 14 4 27 9 30 5 4 8 14 6 24 -1 9 2 23 8 30 5 6 6 12 1 12 -5 0 2
7 14 16 32 22 71 87 89 146 8 28 23 60 34 71 10 11 19 28 19 37 0 8 7 26 16
38 8 12 13 22 10 22 -3 0 5 30 19 66 27 72 31 87 45 184 5 36 12 81 15 100 12
65 11 165 -2 255 -8 49 -11 95 -9 101 2 6 -2 21 -11 33 -8 12 -17 36 -20 54
-3 18 -12 40 -21 51 -10 10 -16 19 -14 20 2 0 -1 12 -6 26 -26 69 -42 100 -63
126 -37 45 -122 124 -127 119 -3 -3 -20 5 -39 16 -18 12 -57 26 -86 33 -45 11
-58 10 -87 -3 -56 -26 -100 -55 -100 -67 0 -7 -17 -29 -39 -50 -21 -22 -46
-52 -55 -69 -9 -16 -21 -37 -26 -45 -12 -18 -33 -74 -28 -76 2 -1 -6 -11 -16
-23 -11 -12 -17 -24 -13 -27 3 -3 -3 -23 -14 -44 -11 -22 -22 -60 -24 -87 -2
-26 -7 -70 -11 -98 -4 -27 -6 -72 -5 -100 1 -27 2 -57 1 -65 0 -8 -2 -51 -3
-95 -2 -44 -7 -79 -10 -77 -4 1 -11 2 -16 2 -5 0 -12 9 -16 19 -3 11 -15 23
-25 26 -16 5 -32 31 -35 55 0 3 -16 22 -35 43 -19 21 -39 46 -45 56 -5 9 -21
31 -34 49 -14 18 -26 42 -28 55 -2 12 -8 24 -13 25 -6 2 -10 8 -10 14 0 6 -11
26 -25 44 -14 18 -25 36 -25 41 0 4 -14 26 -30 47 -17 22 -30 44 -30 50 0 6
-14 31 -31 56 -16 25 -46 79 -65 120 -20 41 -39 77 -42 80 -18 13 -54 100 -52
125 0 3 -6 18 -15 35 -8 16 -16 37 -18 47 -2 10 -14 50 -26 88 -12 39 -25 81
-27 94 -3 14 -7 28 -10 33 -3 5 -7 21 -10 36 -7 38 -35 125 -45 138 -8 9 -19
61 -43 189 -2 11 -4 20 -5 20 -4 0 -3 253 2 285 10 70 69 213 97 233 9 7 21
19 26 28 16 30 195 155 247 174 58 21 198 27 204 9 4 -11 54 -11 72 1 6 3 23
29 37 56 13 28 31 52 38 55 8 3 12 14 9 25 -3 11 1 25 9 32 21 16 42 81 28 85
-5 2 -10 10 -10 17 0 18 -26 26 -54 15 -13 -5 -26 -6 -29 -3 -9 9 -99 10 -153
3z m644 -1979 c28 -13 85 -69 121 -116 25 -33 42 -65 36 -65 -4 0 0 -11 9 -25
9 -14 14 -25 12 -25 -3 0 6 -25 20 -56 13 -30 27 -72 30 -92 3 -20 8 -46 11
-57 4 -11 6 -28 4 -38 -1 -10 1 -24 6 -30 5 -7 9 -54 8 -104 0 -51 3 -93 8
-93 8 0 3 -33 -11 -70 -5 -14 -10 -28 -10 -33 -1 -50 -54 -230 -72 -247 -6 -6
-22 -40 -42 -87 -15 -37 -20 -40 -38 -18 -7 8 -18 15 -25 15 -15 0 -112 128
-140 185 -11 22 -30 57 -43 78 -12 20 -19 37 -16 37 4 0 2 6 -4 13 -11 13 -54
157 -47 157 2 0 -2 19 -10 41 -8 23 -20 70 -25 105 -6 35 -15 76 -22 91 -16
40 -17 52 -7 59 5 3 7 9 4 14 -13 21 -12 216 1 259 7 25 11 47 9 49 -8 8 37
57 67 73 34 17 107 9 166 -20z"/>
<path d="M4235 5598 c-39 -15 -58 -30 -86 -71 -20 -29 -38 -56 -39 -62 -1 -5
-7 -17 -15 -25 -11 -13 -35 -78 -67 -188 -5 -18 -11 -54 -14 -80 -2 -26 -9
-75 -14 -108 -6 -34 -8 -96 -5 -139 3 -42 3 -81 0 -86 -8 -12 -71 56 -95 102
-11 20 -26 39 -35 42 -8 4 -15 12 -15 19 0 7 -16 30 -35 52 -19 21 -35 42 -35
47 0 12 -111 118 -131 124 -9 3 -22 16 -29 30 -15 29 -33 34 -80 21 -27 -7
-42 -20 -65 -57 -16 -27 -30 -56 -31 -65 -2 -9 -8 -20 -14 -24 -7 -4 -12 -11
-12 -16 -1 -17 -21 -54 -30 -54 -4 0 -8 -15 -8 -34 0 -19 -4 -37 -9 -40 -12
-8 -23 -73 -16 -96 8 -26 75 -25 75 1 0 5 11 27 25 49 37 59 58 54 142 -32 38
-40 78 -86 88 -102 10 -15 35 -45 54 -65 20 -20 54 -63 76 -96 22 -33 43 -61
48 -63 4 -2 7 -10 7 -18 0 -8 5 -14 10 -14 6 0 10 -5 10 -10 0 -6 18 -33 40
-61 22 -28 40 -55 40 -60 0 -12 67 -116 80 -124 6 -4 8 -11 5 -16 -4 -5 1 -12
9 -15 9 -3 16 -11 16 -16 0 -6 19 -45 42 -87 24 -42 42 -79 40 -84 -1 -4 14
-15 33 -24 33 -16 36 -16 56 3 22 20 59 89 59 110 0 7 11 35 24 63 25 56 24
96 -4 111 -9 5 -23 23 -30 40 -7 16 -15 30 -19 30 -9 0 -41 55 -46 78 -1 9 -8
35 -14 57 -5 22 -13 54 -16 72 -3 18 -9 43 -14 56 -6 14 -7 27 -4 30 3 3 0 22
-7 42 -13 38 -17 79 -26 240 -7 132 -6 157 5 168 6 6 6 19 1 33 -5 13 -6 24
-2 24 4 0 8 26 10 57 1 42 7 60 20 68 23 14 44 13 62 -2 8 -7 19 -14 24 -16 9
-2 77 -69 101 -99 36 -45 105 -147 105 -157 0 -6 3 -11 8 -11 7 0 97 -119 97
-129 1 -3 19 -32 40 -64 47 -70 80 -123 97 -157 7 -14 15 -27 18 -30 3 -3 30
-38 60 -79 90 -123 126 -150 226 -169 51 -10 66 -10 97 3 20 8 47 15 60 15 13
0 41 16 63 35 21 19 44 35 49 35 11 0 75 96 96 143 7 15 16 27 20 27 13 0 0
83 -16 99 -13 14 -15 14 -15 -1 0 -8 -16 -34 -36 -56 -26 -30 -45 -42 -77 -48
-61 -10 -87 -11 -87 -1 0 4 -4 6 -9 3 -30 -19 -154 80 -232 184 -18 25 -38 48
-44 52 -5 4 -7 8 -3 8 7 0 -38 73 -103 164 -23 32 -42 65 -42 73 0 9 -31 48
-69 87 -37 39 -68 77 -68 85 0 17 -98 141 -158 200 -41 39 -133 92 -157 90 -5
-1 -32 -10 -60 -21z"/>
<path d="M3000 4875 c-14 -7 -32 -25 -40 -39 -7 -14 -20 -27 -29 -27 -9 -1
-36 -2 -61 -4 -25 -1 -58 -6 -75 -11 -16 -6 -40 -9 -52 -8 -13 1 -28 -5 -34
-12 -6 -8 -17 -14 -25 -14 -41 0 -184 -196 -184 -252 0 -8 -6 -23 -14 -34 -8
-11 -17 -36 -20 -56 -3 -20 -12 -55 -19 -77 -8 -22 -11 -45 -6 -52 4 -7 0 -26
-9 -43 -32 -62 -18 -305 24 -418 39 -105 69 -151 132 -200 33 -27 41 -29 97
-24 76 6 93 13 129 49 29 28 72 97 61 97 -3 0 7 24 22 53 15 28 26 58 25 64
-2 7 4 23 12 35 23 38 52 143 61 222 3 27 9 54 13 60 4 6 9 25 11 41 4 35 18
65 31 65 5 0 19 -19 31 -42 12 -24 32 -56 43 -73 12 -16 29 -43 37 -59 7 -16
26 -42 42 -57 15 -15 27 -31 27 -36 1 -13 33 -48 63 -67 15 -10 27 -23 27 -28
0 -11 54 -58 87 -75 31 -16 130 -9 176 13 27 13 43 30 59 66 12 26 24 48 28
48 3 0 6 9 7 21 1 11 12 40 23 65 12 24 23 50 24 56 1 7 8 24 15 37 9 16 10
26 3 33 -6 6 -8 17 -5 24 3 8 0 14 -6 14 -6 0 -11 -7 -11 -15 0 -8 -5 -15 -11
-15 -5 0 -8 -4 -4 -9 3 -6 -1 -13 -8 -18 -7 -4 -22 -22 -32 -40 -19 -32 -35
-41 -93 -49 -28 -4 -38 1 -66 31 -18 19 -38 35 -45 35 -6 0 -11 3 -11 8 0 4
-21 30 -45 57 -25 28 -45 53 -45 57 0 4 -6 13 -13 20 -8 7 -26 32 -40 55 -14
23 -36 52 -49 65 -13 13 -36 50 -53 81 -16 31 -32 57 -36 57 -4 0 -10 10 -14
23 -18 54 -57 137 -65 137 -3 0 -7 6 -8 13 -3 41 -14 78 -34 119 -22 45 -24
46 -48 33z m-124 -350 c17 -11 24 -23 21 -35 -3 -10 1 -28 9 -38 12 -17 11
-22 -1 -32 -10 -8 -12 -17 -6 -28 6 -11 4 -26 -4 -43 -8 -15 -12 -29 -9 -31
10 -10 6 -174 -5 -200 -6 -16 -9 -28 -6 -28 2 0 -3 -19 -12 -42 -8 -24 -17
-60 -18 -80 -4 -43 -17 -70 -36 -74 -89 -18 -87 -18 -123 21 -37 40 -46 58
-71 150 -9 33 -22 80 -29 105 -11 40 -12 104 -2 193 2 15 4 41 5 57 1 21 14
44 39 71 32 34 44 41 86 45 27 2 51 6 53 8 10 9 86 -4 109 -19z"/>
</g>
</svg>
